<?xml version="1.0" encoding="UTF-8"?>
<svg xmlns="http://www.w3.org/2000/svg" xmlns:xlink="http://www.w3.org/1999/xlink" width="480pt" height="480pt" viewBox="0 0 480 480" version="1.1">
<g id="surface1">
<path style=" stroke:none;fill-rule:nonzero;fill:#BBDEFB;fill-opacity:1;" d="M 280 140 C 280 195.226563 235.226563 240 180 240 C 124.773438 240 80 195.226563 80 140 C 80 84.773438 124.773438 40 180 40 C 235.226563 40 280 84.773438 280 140 Z "/>
<path style=" stroke:none;fill-rule:nonzero;fill:#BBDEFB;fill-opacity:1;" d="M 360 110 C 360 143.136719 333.136719 170 300 170 C 266.863281 170 240 143.136719 240 110 C 240 76.863281 266.863281 50 300 50 C 333.136719 50 360 76.863281 360 110 Z "/>
<path style=" stroke:none;fill-rule:nonzero;fill:#90CAF9;fill-opacity:1;" d="M 250 280 C 250 318.660156 218.660156 350 180 350 C 141.339844 350 110 318.660156 110 280 C 110 241.339844 141.339844 210 180 210 C 218.660156 210 250 241.339844 250 280 Z "/>
<path style=" stroke:none;fill-rule:nonzero;fill:#90CAF9;fill-opacity:1;" d="M 370 280 C 370 318.660156 338.660156 350 300 350 C 261.339844 350 230 318.660156 230 280 C 230 241.339844 261.339844 210 300 210 C 338.660156 210 370 241.339844 370 280 Z "/>
<path style=" stroke:none;fill-rule:nonzero;fill:#BBDEFB;fill-opacity:1;" d="M 190 215 C 190 261.945313 151.945313 300 105 300 C 58.054688 300 20 261.945313 20 215 C 20 168.054688 58.054688 130 105 130 C 151.945313 130 190 168.054688 190 215 Z "/>
<path style=" stroke:none;fill-rule:nonzero;fill:#BBDEFB;fill-opacity:1;" d="M 460 200 C 460 255.226563 415.226563 300 360 300 C 304.773438 300 260 255.226563 260 200 C 260 144.773438 304.773438 100 360 100 C 415.226563 100 460 144.773438 460 200 Z "/>
<path style=" stroke:none;fill-rule:nonzero;fill:#90CAF9;fill-opacity:1;" d="M 340 180 C 340 218.660156 308.660156 250 270 250 C 231.339844 250 200 218.660156 200 180 C 200 141.339844 231.339844 110 270 110 C 308.660156 110 340 141.339844 340 180 Z "/>
<path style=" stroke:none;fill-rule:nonzero;fill:#90CAF9;fill-opacity:1;" d="M 220 240 C 220 278.660156 188.660156 310 150 310 C 111.339844 310 80 278.660156 80 240 C 80 201.339844 111.339844 170 150 170 C 188.660156 170 220 201.339844 220 240 Z "/>
<path style=" stroke:none;fill-rule:nonzero;fill:#90CAF9;fill-opacity:1;" d="M 230 180 C 230 202.089844 212.089844 220 190 220 C 167.910156 220 150 202.089844 150 180 C 150 157.910156 167.910156 140 190 140 C 212.089844 140 230 157.910156 230 180 Z "/>
<path style=" stroke:none;fill-rule:nonzero;fill:#90CAF9;fill-opacity:1;" d="M 400 240 C 400 278.660156 368.660156 310 330 310 C 291.339844 310 260 278.660156 260 240 C 260 201.339844 291.339844 170 330 170 C 368.660156 170 400 201.339844 400 240 Z "/>
<path style=" stroke:none;fill-rule:nonzero;fill:#42A5F5;fill-opacity:1;" d="M 240 440 C 234 440 230 436 230 430 L 230 280 C 230 274 234 270 240 270 C 246 270 250 274 250 280 L 250 430 C 250 436 246 440 240 440 Z "/>
<path style=" stroke:none;fill-rule:nonzero;fill:#42A5F5;fill-opacity:1;" d="M 324 280 C 323 280 323 280 322 280 C 317 279 313 274 314 268 L 320 238 C 321 233 326 229 332 230 C 337 231 341 236 340 242 L 334 272 C 332 277 328 280 324 280 Z "/>
<path style=" stroke:none;fill-rule:nonzero;fill:#42A5F5;fill-opacity:1;" d="M 290 440 C 289 440 289 440 288 440 C 283 439 279 434 280 428 L 305 308 C 306 303 311 299 317 300 C 322 301 326 306 325 312 L 300 432 C 299 437 295 440 290 440 Z "/>
<path style=" stroke:none;fill-rule:nonzero;fill:#42A5F5;fill-opacity:1;" d="M 156 280 C 151 280 147 277 146 272 L 140 242 C 139 237 142 231 148 230 C 153 229 159 232 160 238 L 166 268 C 167 273 164 279 158 280 C 158 280 157 280 156 280 Z "/>
<path style=" stroke:none;fill-rule:nonzero;fill:#42A5F5;fill-opacity:1;" d="M 190 440 C 185 440 181 437 180 432 L 155 312 C 154 307 157 301 163 300 C 168 299 174 302 175 308 L 200 428 C 201 433 198 439 192 440 C 191 440 191 440 190 440 Z "/>
<path style=" stroke:none;fill-rule:nonzero;fill:#42A5F5;fill-opacity:1;" d="M 240 250 C 234 250 230 246 230 240 L 230 210 C 230 204 234 200 240 200 C 246 200 250 204 250 210 L 250 240 C 250 246 246 250 240 250 Z "/>
</g>
</svg>
