<?xml version="1.0" encoding="UTF-8"?>
<svg xmlns="http://www.w3.org/2000/svg" xmlns:xlink="http://www.w3.org/1999/xlink" width="512pt" height="512pt" viewBox="0 0 512 512" version="1.1">
<g id="surface1">
<path style=" stroke:none;fill-rule:nonzero;fill:#7BBEEB;fill-opacity:1;" d="M 280 104 L 130.574219 104 C 120.792969 104 113.304688 112.695313 114.753906 122.375 L 147.910156 452.753906 C 150.265625 468.40625 163.71875 480 179.558594 480 L 332.449219 480 C 348.289063 480 361.742188 468.40625 364.097656 452.742188 L 397.257813 122.367188 C 398.695313 112.695313 391.199219 104 381.425781 104 "/>
<path style=" stroke:none;fill-rule:nonzero;fill:#E3F2FF;fill-opacity:1;" d="M 381.425781 104 L 130.574219 104 C 120.792969 104 113.304688 112.695313 114.753906 122.375 L 145.71875 439.847656 C 146.609375 439.878906 147.464844 440 148.359375 440 L 366.246094 440 L 397.238281 122.375 C 398.695313 112.695313 391.199219 104 381.425781 104 Z "/>
<path style=" stroke:none;fill-rule:nonzero;fill:#85CBF8;fill-opacity:1;" d="M 128 264 L 145.71875 439.847656 C 146.609375 439.878906 147.464844 440 148.359375 440 L 366.246094 440 L 384 264 Z "/>
<path style=" stroke:none;fill-rule:nonzero;fill:#ED7899;fill-opacity:1;" d="M 212.273438 384.703125 C 208.222656 384.703125 204.761719 381.648438 204.328125 377.535156 L 168.046875 32.832031 C 167.574219 28.441406 170.769531 24.503906 175.167969 24.039063 C 179.457031 23.574219 183.496094 26.761719 183.960938 31.160156 L 220.238281 375.863281 C 220.710938 380.257813 217.519531 384.191406 213.121094 384.65625 C 212.832031 384.6875 212.550781 384.703125 212.273438 384.703125 Z "/>
<path style=" stroke:none;fill-rule:nonzero;fill:#ACB7D0;fill-opacity:1;" d="M 204.328125 377.535156 C 204.761719 381.648438 208.222656 384.703125 212.273438 384.703125 C 212.550781 384.703125 212.832031 384.6875 213.113281 384.65625 C 217.511719 384.191406 220.695313 380.257813 220.230469 375.863281 L 208.457031 264 L 192.375 264 Z "/>
<path style=" stroke:none;fill-rule:nonzero;fill:#8D6C9F;fill-opacity:1;" d="M 399.609375 104.34375 C 396.375 100.585938 392.105469 97.960938 387.390625 96.753906 C 386.367188 96.273438 385.207031 96 384 96 L 206.863281 96 L 199.863281 29.488281 C 198.585938 17.238281 188.320313 8 175.992188 8 C 175.152344 8 174.304688 8.039063 173.457031 8.136719 C 167.113281 8.800781 161.375 11.921875 157.335938 16.910156 C 153.304688 21.894531 151.457031 28.160156 152.136719 34.535156 L 158.609375 96 L 130.574219 96 C 123.585938 96 116.953125 99.039063 112.390625 104.34375 C 107.832031 109.640625 105.808594 116.648438 106.800781 123.175781 L 140 453.945313 C 142.96875 473.671875 159.601563 488 179.550781 488 L 332.441406 488 C 352.390625 488 369.023438 473.671875 372.039063 453.542969 L 405.152344 123.558594 C 406.191406 116.648438 404.167969 109.640625 399.609375 104.34375 Z M 168.046875 32.832031 C 167.574219 28.441406 170.769531 24.503906 175.167969 24.039063 C 175.441406 24.015625 175.71875 24 175.992188 24 C 179.960938 24 183.519531 27.046875 183.953125 31.160156 L 190.777344 96 L 174.695313 96 Z M 176.375 112 L 192.457031 112 L 220.230469 375.863281 C 220.703125 380.257813 217.511719 384.191406 213.113281 384.65625 C 212.832031 384.6875 212.550781 384.703125 212.273438 384.703125 C 208.222656 384.703125 204.761719 381.648438 204.328125 377.535156 Z M 122.671875 121.183594 C 122.320313 118.847656 122.976563 116.566406 124.511719 114.777344 C 126.0625 112.984375 128.207031 112 130.574219 112 L 160.289063 112 L 175.449219 256 L 136.207031 256 Z M 375.792969 256 L 248 256 C 243.574219 256 240 259.574219 240 264 C 240 268.425781 243.574219 272 248 272 L 374.191406 272 L 356.175781 451.558594 C 354.398438 463.40625 344.414063 472 332.449219 472 L 179.550781 472 C 167.585938 472 157.601563 463.40625 155.871094 451.953125 L 137.808594 272 L 177.128906 272 L 188.414063 379.214844 C 189.695313 391.464844 199.953125 400.703125 212.273438 400.703125 C 213.144531 400.703125 214.007813 400.65625 214.878906 400.558594 C 221.167969 399.902344 226.910156 396.785156 230.945313 391.792969 C 234.976563 386.808594 236.824219 380.542969 236.144531 374.167969 L 208.550781 112 L 381.425781 112 C 383.792969 112 385.9375 112.984375 387.488281 114.785156 C 389.023438 116.574219 389.679688 118.855469 389.289063 121.585938 Z "/>
<path style=" stroke:none;fill-rule:nonzero;fill:#8D6C9F;fill-opacity:1;" d="M 176 424 C 171.574219 424 168 427.574219 168 432 L 168 448 C 168 452.425781 171.574219 456 176 456 C 180.425781 456 184 452.425781 184 448 L 184 432 C 184 427.574219 180.425781 424 176 424 Z "/>
<path style=" stroke:none;fill-rule:nonzero;fill:#8D6C9F;fill-opacity:1;" d="M 216 424 C 211.574219 424 208 427.574219 208 432 L 208 448 C 208 452.425781 211.574219 456 216 456 C 220.425781 456 224 452.425781 224 448 L 224 432 C 224 427.574219 220.425781 424 216 424 Z "/>
<path style=" stroke:none;fill-rule:nonzero;fill:#8D6C9F;fill-opacity:1;" d="M 256 456 C 260.425781 456 264 452.425781 264 448 L 264 432 C 264 427.574219 260.425781 424 256 424 C 251.574219 424 248 427.574219 248 432 L 248 448 C 248 452.425781 251.574219 456 256 456 Z "/>
<path style=" stroke:none;fill-rule:nonzero;fill:#8D6C9F;fill-opacity:1;" d="M 296 456 C 300.425781 456 304 452.425781 304 448 L 304 432 C 304 427.574219 300.425781 424 296 424 C 291.574219 424 288 427.574219 288 432 L 288 448 C 288 452.425781 291.574219 456 296 456 Z "/>
<path style=" stroke:none;fill-rule:nonzero;fill:#8D6C9F;fill-opacity:1;" d="M 336 456 C 340.425781 456 344 452.425781 344 448 L 344 432 C 344 427.574219 340.425781 424 336 424 C 331.574219 424 328 427.574219 328 432 L 328 448 C 328 452.425781 331.574219 456 336 456 Z "/>
</g>
</svg>
